<svg xmlns="http://www.w3.org/2000/svg" version="1.1" xmlns:xlink="http://www.w3.org/1999/xlink" width="1000" height="1000"><style>
    #light-icon {
      display: inline;
    }
    #dark-icon {
      display: none;
    }

    @media (prefers-color-scheme: dark) {
      #light-icon {
        display: none;
      }
      #dark-icon {
        display: inline;
      }
    }
  </style><g id="light-icon"><svg xmlns="http://www.w3.org/2000/svg" version="1.1" xmlns:xlink="http://www.w3.org/1999/xlink" width="1000" height="1000"><g><g transform="matrix(1.953125,0,0,1.953125,0,0)"><svg xmlns="http://www.w3.org/2000/svg" version="1.1" xmlns:xlink="http://www.w3.org/1999/xlink" width="512" height="512"><svg xmlns="http://www.w3.org/2000/svg" xmlns:xlink="http://www.w3.org/1999/xlink" width="512" zoomAndPan="magnify" viewBox="0 0 384 383.999986" height="512" preserveAspectRatio="xMidYMid meet" version="1.0"><defs><g></g><clipPath id="de57e1d943"><path d="M 0.839844 0.839844 L 361.160156 0.839844 L 361.160156 361.160156 L 0.839844 361.160156 Z M 0.839844 0.839844 " clip-rule="nonzero"></path></clipPath><clipPath id="6e634f74fa"><path d="M 181 0.839844 C 81.5 0.839844 0.839844 81.5 0.839844 181 C 0.839844 280.5 81.5 361.160156 181 361.160156 C 280.5 361.160156 361.160156 280.5 361.160156 181 C 361.160156 81.5 280.5 0.839844 181 0.839844 Z M 181 0.839844 " clip-rule="nonzero"></path></clipPath><clipPath id="218e58bfb6"><path d="M 0.839844 0.839844 L 361.160156 0.839844 L 361.160156 361.160156 L 0.839844 361.160156 Z M 0.839844 0.839844 " clip-rule="nonzero"></path></clipPath><clipPath id="b2a588e779"><path d="M 181 0.839844 C 81.5 0.839844 0.839844 81.5 0.839844 181 C 0.839844 280.5 81.5 361.160156 181 361.160156 C 280.5 361.160156 361.160156 280.5 361.160156 181 C 361.160156 81.5 280.5 0.839844 181 0.839844 Z M 181 0.839844 " clip-rule="nonzero"></path></clipPath><clipPath id="f76cd061b2"><rect x="0" width="362" y="0" height="362"></rect></clipPath><clipPath id="0b77c18f37"><rect x="0" width="122" y="0" height="269"></rect></clipPath><clipPath id="df486054be"><rect x="0" width="362" y="0" height="362"></rect></clipPath></defs><g transform="matrix(1, 0, 0, 1, 11, 11)"><g clip-path="url(#df486054be)"><g clip-path="url(#de57e1d943)"><g clip-path="url(#6e634f74fa)"><g><g clip-path="url(#f76cd061b2)"><g clip-path="url(#218e58bfb6)"><g clip-path="url(#b2a588e779)"><path fill="#323941" d="M 0.839844 0.839844 L 361.160156 0.839844 L 361.160156 361.160156 L 0.839844 361.160156 Z M 0.839844 0.839844 " fill-opacity="1" fill-rule="nonzero"></path></g></g></g></g></g></g><g fill="#ffffff" fill-opacity="1"><g transform="translate(215.734263, 210.478355)"><g><path d="M 22.234375 27.359375 C 17.148438 27.359375 12.878906 26.398438 9.421875 24.484375 C 5.972656 22.566406 3.375 19.941406 1.625 16.609375 C -0.125 13.273438 -1 9.488281 -1 5.25 C -1 1 -0.164062 -3.515625 1.5 -8.296875 C 3.164062 -13.085938 5.929688 -17.816406 9.796875 -22.484375 C 13.671875 -27.148438 18.898438 -31.476562 25.484375 -35.46875 L 25.484375 -69.953125 L 8.125 -69.953125 L 8.125 -87.4375 L 45.34375 -87.4375 L 45.34375 1 C 45.34375 6.25 44.507812 10.847656 42.84375 14.796875 C 41.175781 18.753906 38.632812 21.835938 35.21875 24.046875 C 31.8125 26.253906 27.484375 27.359375 22.234375 27.359375 Z M 21.109375 9.375 C 22.109375 9.375 22.984375 9.082031 23.734375 8.5 C 24.484375 7.914062 25.046875 7.101562 25.421875 6.0625 C 25.796875 5.019531 25.984375 3.789062 25.984375 2.375 L 25.984375 -16.734375 C 23.648438 -14.816406 21.753906 -12.835938 20.296875 -10.796875 C 18.835938 -8.765625 17.773438 -6.664062 17.109375 -4.5 C 16.441406 -2.332031 16.109375 0.0390625 16.109375 2.625 C 16.109375 4.789062 16.609375 6.457031 17.609375 7.625 C 18.609375 8.789062 19.773438 9.375 21.109375 9.375 Z M 21.109375 9.375 "></path></g></g></g><g transform="matrix(1, 0, 0, 1, 76, 46)"><g clip-path="url(#0b77c18f37)"><g fill="#ffffff" fill-opacity="1"><g transform="translate(0.50814, 193.14752)"><g><path d="M 65.34375 -1.84375 L 54.9375 -10.578125 L 92.734375 -49.390625 C 93.515625 -50.054688 94.097656 -50.613281 94.484375 -51.0625 C 94.878906 -51.507812 95.132812 -51.847656 95.25 -52.078125 L 5.875 -52.078125 L 5.875 -66.1875 L 95.421875 -66.1875 C 95.191406 -66.519531 94.878906 -66.878906 94.484375 -67.265625 C 94.097656 -67.660156 93.515625 -68.253906 92.734375 -69.046875 L 55.265625 -107.171875 L 65.171875 -116.40625 L 106.671875 -74.078125 C 109.472656 -71.273438 111.570312 -68.753906 112.96875 -66.515625 C 114.363281 -64.273438 115.0625 -61.867188 115.0625 -59.296875 C 115.0625 -56.835938 114.363281 -54.398438 112.96875 -51.984375 C 111.570312 -49.578125 109.472656 -46.976562 106.671875 -44.1875 Z M 65.34375 -1.84375 "></path></g></g></g></g></g></g></g></svg></svg></g></g></svg></g><g id="dark-icon"><svg xmlns="http://www.w3.org/2000/svg" version="1.1" xmlns:xlink="http://www.w3.org/1999/xlink" width="1000" height="1000"><g clip-path="url(#SvgjsClipPath1051)"><rect width="1000" height="1000" fill="#ffffff"></rect><g transform="matrix(1.3671875,0,0,1.3671875,150,150)"><svg xmlns="http://www.w3.org/2000/svg" version="1.1" xmlns:xlink="http://www.w3.org/1999/xlink" width="512" height="512"><svg xmlns="http://www.w3.org/2000/svg" xmlns:xlink="http://www.w3.org/1999/xlink" width="512" zoomAndPan="magnify" viewBox="0 0 384 383.999986" height="512" preserveAspectRatio="xMidYMid meet" version="1.0"><defs><g></g><clipPath id="de57e1d943"><path d="M 0.839844 0.839844 L 361.160156 0.839844 L 361.160156 361.160156 L 0.839844 361.160156 Z M 0.839844 0.839844 " clip-rule="nonzero"></path></clipPath><clipPath id="6e634f74fa"><path d="M 181 0.839844 C 81.5 0.839844 0.839844 81.5 0.839844 181 C 0.839844 280.5 81.5 361.160156 181 361.160156 C 280.5 361.160156 361.160156 280.5 361.160156 181 C 361.160156 81.5 280.5 0.839844 181 0.839844 Z M 181 0.839844 " clip-rule="nonzero"></path></clipPath><clipPath id="218e58bfb6"><path d="M 0.839844 0.839844 L 361.160156 0.839844 L 361.160156 361.160156 L 0.839844 361.160156 Z M 0.839844 0.839844 " clip-rule="nonzero"></path></clipPath><clipPath id="b2a588e779"><path d="M 181 0.839844 C 81.5 0.839844 0.839844 81.5 0.839844 181 C 0.839844 280.5 81.5 361.160156 181 361.160156 C 280.5 361.160156 361.160156 280.5 361.160156 181 C 361.160156 81.5 280.5 0.839844 181 0.839844 Z M 181 0.839844 " clip-rule="nonzero"></path></clipPath><clipPath id="f76cd061b2"><rect x="0" width="362" y="0" height="362"></rect></clipPath><clipPath id="0b77c18f37"><rect x="0" width="122" y="0" height="269"></rect></clipPath><clipPath id="df486054be"><rect x="0" width="362" y="0" height="362"></rect></clipPath><clipPath id="SvgjsClipPath1051"><rect width="1000" height="1000" x="0" y="0" rx="350" ry="350"></rect></clipPath></defs><g transform="matrix(1, 0, 0, 1, 11, 11)"><g clip-path="url(#df486054be)"><g clip-path="url(#de57e1d943)"><g clip-path="url(#6e634f74fa)"><g><g clip-path="url(#f76cd061b2)"><g clip-path="url(#218e58bfb6)"><g clip-path="url(#b2a588e779)"><path fill="#323941" d="M 0.839844 0.839844 L 361.160156 0.839844 L 361.160156 361.160156 L 0.839844 361.160156 Z M 0.839844 0.839844 " fill-opacity="1" fill-rule="nonzero"></path></g></g></g></g></g></g><g fill="#ffffff" fill-opacity="1"><g transform="translate(215.734263, 210.478355)"><g><path d="M 22.234375 27.359375 C 17.148438 27.359375 12.878906 26.398438 9.421875 24.484375 C 5.972656 22.566406 3.375 19.941406 1.625 16.609375 C -0.125 13.273438 -1 9.488281 -1 5.25 C -1 1 -0.164062 -3.515625 1.5 -8.296875 C 3.164062 -13.085938 5.929688 -17.816406 9.796875 -22.484375 C 13.671875 -27.148438 18.898438 -31.476562 25.484375 -35.46875 L 25.484375 -69.953125 L 8.125 -69.953125 L 8.125 -87.4375 L 45.34375 -87.4375 L 45.34375 1 C 45.34375 6.25 44.507812 10.847656 42.84375 14.796875 C 41.175781 18.753906 38.632812 21.835938 35.21875 24.046875 C 31.8125 26.253906 27.484375 27.359375 22.234375 27.359375 Z M 21.109375 9.375 C 22.109375 9.375 22.984375 9.082031 23.734375 8.5 C 24.484375 7.914062 25.046875 7.101562 25.421875 6.0625 C 25.796875 5.019531 25.984375 3.789062 25.984375 2.375 L 25.984375 -16.734375 C 23.648438 -14.816406 21.753906 -12.835938 20.296875 -10.796875 C 18.835938 -8.765625 17.773438 -6.664062 17.109375 -4.5 C 16.441406 -2.332031 16.109375 0.0390625 16.109375 2.625 C 16.109375 4.789062 16.609375 6.457031 17.609375 7.625 C 18.609375 8.789062 19.773438 9.375 21.109375 9.375 Z M 21.109375 9.375 "></path></g></g></g><g transform="matrix(1, 0, 0, 1, 76, 46)"><g clip-path="url(#0b77c18f37)"><g fill="#ffffff" fill-opacity="1"><g transform="translate(0.50814, 193.14752)"><g><path d="M 65.34375 -1.84375 L 54.9375 -10.578125 L 92.734375 -49.390625 C 93.515625 -50.054688 94.097656 -50.613281 94.484375 -51.0625 C 94.878906 -51.507812 95.132812 -51.847656 95.25 -52.078125 L 5.875 -52.078125 L 5.875 -66.1875 L 95.421875 -66.1875 C 95.191406 -66.519531 94.878906 -66.878906 94.484375 -67.265625 C 94.097656 -67.660156 93.515625 -68.253906 92.734375 -69.046875 L 55.265625 -107.171875 L 65.171875 -116.40625 L 106.671875 -74.078125 C 109.472656 -71.273438 111.570312 -68.753906 112.96875 -66.515625 C 114.363281 -64.273438 115.0625 -61.867188 115.0625 -59.296875 C 115.0625 -56.835938 114.363281 -54.398438 112.96875 -51.984375 C 111.570312 -49.578125 109.472656 -46.976562 106.671875 -44.1875 Z M 65.34375 -1.84375 "></path></g></g></g></g></g></g></g></svg></svg></g></g></svg></g></svg>