<svg  xmlns="http://www.w3.org/2000/svg" viewBox="0 0 1200 630">
        <path
          d="M153.56,292.4h6.4v-11h12.7v11h9.8v10.8h-9.8v20.9c0,5,1,7.1,5.7,7.1h4.1v11.2h-5.4c-12.1,0-17.1-3.4-17.1-16.3v-22.9h-6.4v-10.8Z"
          style="fill:#333;"
        />
        <path
          d="M229.06,334.8c-3.5,6.1-9.3,8.5-18.3,8.5-15,0-22.2-9.7-22.2-22.6v-6.8c0-15.1,7.6-22.4,20.6-22.4,14.1,0,20.6,8.2,20.6,23.4v5.7h-28.5c.1,6.9,2.3,11.9,9.4,11.9,5.3,0,7-1.6,8.9-4.3l9.5,6.6Zm-27.8-23.3h15.7c-.3-6.5-2.9-9.2-7.7-9.2-5.1,0-7.5,3.5-8,9.2Z"
          style="fill:#333;"
        />
        <path
          d="M268.06,342.4l-9.7-15.2-9.7,15.2h-14.1l16.4-25.6-15.1-24.4h14.1l8.4,14.3,8.4-14.3h14.1l-15.1,24.4,16.5,25.6h-14.2Z"
          style="fill:#333;"
        />
        <path
          d="M284.26,292.4h6.4v-11h12.7v11h9.8v10.8h-9.8v20.9c0,5,1,7.1,5.7,7.1h4.1v11.2h-5.4c-12.1,0-17.1-3.4-17.1-16.3v-22.9h-6.4v-10.8Z"
          style="fill:#333;"
        />
        <path d="M337.56,342.4h-15.6v-15.6h15.6v15.6Z" style="fill:#333;" />
        <path
          d="M362.96,345.1c0,12.8-6.1,16.3-19.4,16.3v-11c5.3,0,6.7-2.4,6.7-7.1v-50.9h12.7v52.7Zm-13.2-71.7h13.7v12.4h-13.7v-12.4Z"
          style="fill:#333;"
        />
        <path
          d="M416.06,342.4h-12.5v-4.2c-2.1,3.4-4.8,5.1-11.4,5.1-10.1,0-18.4-5-18.4-19.7v-31.2h12.8v29.3c0,7.9,2.8,10.6,8.1,10.6,5.9,0,8.7-3.6,8.7-10.5v-29.4h12.7v50Z"
          style="fill:#333;"
        />
        <path
          d="M426.35,292.4h12.5v4.2c1.9-2.5,5.9-5.1,11.5-5.1,10.1,0,18.3,4.8,18.3,19.6v31.3h-12.7v-29.3c0-7.8-2.8-10.6-8-10.6-5.9,0-8.8,3.9-8.8,10.5v29.4h-12.8v-50Z"
          style="fill:#333;"
        />
        <path
          d="M506.35,306.5c-2.2-2.6-4.4-4-9.8-4-3.3,0-6.3,1-6.3,3.9s2.7,4.1,8,4.9c12.3,1.9,18.5,6.6,18.5,16.5s-6.7,15.5-19.6,15.5c-10.2,0-16.4-2.5-20.7-8.3l9.8-7c2,2.7,4.5,4.3,10.7,4.3,4.4,0,7.1-1.5,7.1-4.1,0-3.1-2.2-4.1-8.5-5.1-10.4-1.7-18-6.1-18-16.2,0-9.5,6.8-15.4,19.3-15.4,8.2,0,15,1.9,18.9,8.3l-9.4,6.7Z"
          style="fill:#333;"
        />
        <path
          d="M564.05,334.8c-3.5,6.1-9.3,8.5-18.3,8.5-15,0-22.2-9.7-22.2-22.6v-6.8c0-15.1,7.6-22.4,20.6-22.4,14.1,0,20.6,8.2,20.6,23.4v5.7h-28.5c.1,6.9,2.3,11.9,9.4,11.9,5.3,0,7-1.6,8.9-4.3l9.5,6.6Zm-27.8-23.3h15.7c-.3-6.5-2.9-9.2-7.7-9.2-5.1,0-7.5,3.5-8,9.2Z"
          style="fill:#333;"
        />
        <path
          d="M574.95,273.4h13.8v12.4h-13.8v-12.4Zm.5,19h12.8v50h-12.8v-50Z"
          style="fill:#333;"
        />
        <path
          d="M599.95,292.4h12.5v4.2c1.9-2.5,5.9-5.1,11.5-5.1,10.1,0,18.3,4.8,18.3,19.6v31.3h-12.7v-29.3c0-7.8-2.8-10.6-8-10.6-5.9,0-8.8,3.9-8.8,10.5v29.4h-12.8v-50Z"
          style="fill:#333;"
        />
        <path
          d="M668.55,312.4h9.9v-2.9c0-5.6-1.7-7.4-8.9-7.4-4.9,0-7.3,.7-9.4,4l-9-6.3c3.7-6.1,9.3-8.3,19.6-8.3,12.9,0,20.2,3.8,20.2,18.1v32.8h-12.5v-4.4c-2,3.4-5,5.3-10.8,5.3-10.4,0-17.6-5.5-17.6-15.7s8-15.2,18.5-15.2Zm9.9,9.4h-8.4c-5.2,0-7.5,1.7-7.5,5.6s2.9,5.6,7.3,5.6c5.8,0,8.6-2.5,8.6-9.3v-1.9Z"
          style="fill:#333;"
        />
        <path
          d="M729.85,292.4h12.7v49c0,16.7-9.4,20.6-22,20.6-9.3,0-15.2-2.2-19.6-9l8.6-6.2c2.2,3,5.1,4.5,9.8,4.5,7.6,0,10.5-2.2,10.5-9.9v-1.6c-2.7,2.3-6.2,3.5-10.7,3.5-13.1,0-19.8-9.3-19.8-22.6v-6.8c0-14.6,7.9-22.4,19.8-22.4,4.5,0,8,1.2,10.7,3.5v-2.6Zm0,28.6v-6.3c0-8-2.6-12.4-8.9-12.4s-8.9,4.4-8.9,12.4v5.2c0,7.2,2,12.6,8.9,12.6s8.9-4.9,8.9-11.5Z"
          style="fill:#333;"
        />
        <path
          d="M768.85,312.4h9.9v-2.9c0-5.6-1.7-7.4-8.9-7.4-4.9,0-7.3,.7-9.4,4l-9-6.3c3.7-6.1,9.3-8.3,19.6-8.3,12.9,0,20.2,3.8,20.2,18.1v32.8h-12.5v-4.4c-2,3.4-5,5.3-10.8,5.3-10.4,0-17.6-5.5-17.6-15.7s8-15.2,18.5-15.2Zm9.9,9.4h-8.4c-5.2,0-7.5,1.7-7.5,5.6s2.9,5.6,7.3,5.6c5.8,0,8.6-2.5,8.6-9.3v-1.9Z"
          style="fill:#333;"
        />
        <path
          d="M842.85,320.3c0,13.7-6.5,23-21.6,23s-21.6-9-21.6-23v-6c0-15,7.9-22.8,21.6-22.8s21.6,7.8,21.6,22.8v6Zm-12.7-.4v-5.2c0-8-2.6-12.4-8.9-12.4s-8.9,4.4-8.9,12.4v5.2c0,7.2,1.8,12.6,8.9,12.6s8.9-5.4,8.9-12.6Z"
          style="fill:#333;"
        />
        <path d="M867.85,342.4h-15.6v-15.6h15.6v15.6Z" style="fill:#333;" />
        <path
          d="M917.64,334.8c-3.5,5.9-9.2,8.5-18.2,8.5-14.3,0-22.3-9-22.3-22.6v-6.8c0-14.6,8.1-22.4,23-22.4,7.7,0,14,2.8,17.5,8.3l-9.6,6.7c-1.7-2.4-4.2-4.2-8.2-4.2-7.2,0-10,4.4-10,12.4v5.2c0,7.2,1.9,12.6,10,12.6,3.8,0,6.5-1.3,8.3-4.3l9.5,6.6Z"
          style="fill:#333;"
        />
        <path
          d="M964.95,320.3c0,13.7-6.5,23-21.6,23s-21.6-9-21.6-23v-6c0-15,7.9-22.8,21.6-22.8s21.6,7.8,21.6,22.8v6Zm-12.7-.4v-5.2c0-8-2.6-12.4-8.9-12.4s-8.9,4.4-8.9,12.4v5.2c0,7.2,1.8,12.6,8.9,12.6s8.9-5.4,8.9-12.6Z"
          style="fill:#333;"
        />
        <path
          d="M1014.44,342.4h-12.7v-29.3c0-8-3.1-10.6-7.6-10.6s-7.9,3.4-7.9,10.5v29.4h-12.8v-50h12.5v4.2c1.9-2.6,5.5-5.1,11.1-5.1,6,0,10.9,2.3,14,6.7,3.2-3.9,8.1-6.7,14.4-6.7,10.9,0,17.3,6.6,17.3,19.6v31.3h-12.8v-29.3c0-7.5-2.6-10.6-7.7-10.6-4.6,0-7.8,3.4-7.8,10.5v29.4Z"
          style="fill:#333;"
        />
      </svg>