<svg xmlns="http://www.w3.org/2000/svg" xmlns:xlink="http://www.w3.org/1999/xlink" width="500" zoomAndPan="magnify" viewBox="0 0 375 374.999991" height="500" preserveAspectRatio="xMidYMid meet" version="1.0"><defs><g/><clipPath id="43a6246ac4"><path d="M 0.503906 0.503906 L 360.496094 0.503906 L 360.496094 360.496094 L 0.503906 360.496094 Z M 0.503906 0.503906 " clip-rule="nonzero"/></clipPath><clipPath id="ffb77e16ff"><path d="M 180.5 0.503906 C 81.089844 0.503906 0.503906 81.089844 0.503906 180.5 C 0.503906 279.910156 81.089844 360.496094 180.5 360.496094 C 279.910156 360.496094 360.496094 279.910156 360.496094 180.5 C 360.496094 81.089844 279.910156 0.503906 180.5 0.503906 Z M 180.5 0.503906 " clip-rule="nonzero"/></clipPath><clipPath id="a97739f55e"><path d="M 0.503906 0.503906 L 360.496094 0.503906 L 360.496094 360.496094 L 0.503906 360.496094 Z M 0.503906 0.503906 " clip-rule="nonzero"/></clipPath><clipPath id="7f510b504d"><path d="M 180.5 0.503906 C 81.089844 0.503906 0.503906 81.089844 0.503906 180.5 C 0.503906 279.910156 81.089844 360.496094 180.5 360.496094 C 279.910156 360.496094 360.496094 279.910156 360.496094 180.5 C 360.496094 81.089844 279.910156 0.503906 180.5 0.503906 Z M 180.5 0.503906 " clip-rule="nonzero"/></clipPath><clipPath id="043058f7b1"><rect x="0" width="361" y="0" height="361"/></clipPath><clipPath id="773a0b79c3"><rect x="0" width="122" y="0" height="268"/></clipPath><clipPath id="a7d7fd9bd5"><rect x="0" width="361" y="0" height="361"/></clipPath></defs><rect x="-37.5" width="450" fill="#ffffff" y="-37.499999" height="449.999989" fill-opacity="1"/><rect x="-37.5" width="450" fill="#ffffff" y="-37.499999" height="449.999989" fill-opacity="1"/><g transform="matrix(1, 0, 0, 1, 7, 7)"><g clip-path="url(#a7d7fd9bd5)"><g clip-path="url(#43a6246ac4)"><g clip-path="url(#ffb77e16ff)"><g transform="matrix(1, 0, 0, 1, 0.000000000000000888, 0)"><g clip-path="url(#043058f7b1)"><g clip-path="url(#a97739f55e)"><g clip-path="url(#7f510b504d)"><path fill="#323941" d="M 0.503906 0.503906 L 360.496094 0.503906 L 360.496094 360.496094 L 0.503906 360.496094 Z M 0.503906 0.503906 " fill-opacity="1" fill-rule="nonzero"/></g></g></g></g></g></g><g fill="#ffffff" fill-opacity="1"><g transform="translate(215.202518, 209.95142)"><g><path d="M 22.21875 27.328125 C 17.132812 27.328125 12.867188 26.367188 9.421875 24.453125 C 5.972656 22.546875 3.375 19.925781 1.625 16.59375 C -0.125 13.269531 -1 9.484375 -1 5.234375 C -1 0.992188 -0.164062 -3.515625 1.5 -8.296875 C 3.164062 -13.078125 5.929688 -17.796875 9.796875 -22.453125 C 13.660156 -27.117188 18.878906 -31.445312 25.453125 -35.4375 L 25.453125 -69.890625 L 8.109375 -69.890625 L 8.109375 -87.359375 L 45.296875 -87.359375 L 45.296875 1 C 45.296875 6.238281 44.460938 10.832031 42.796875 14.78125 C 41.140625 18.738281 38.601562 21.816406 35.1875 24.015625 C 31.78125 26.222656 27.457031 27.328125 22.21875 27.328125 Z M 21.09375 9.359375 C 22.09375 9.359375 22.960938 9.066406 23.703125 8.484375 C 24.453125 7.898438 25.015625 7.085938 25.390625 6.046875 C 25.765625 5.015625 25.953125 3.789062 25.953125 2.375 L 25.953125 -16.71875 C 23.628906 -14.8125 21.738281 -12.835938 20.28125 -10.796875 C 18.820312 -8.753906 17.757812 -6.648438 17.09375 -4.484375 C 16.425781 -2.328125 16.09375 0.0390625 16.09375 2.625 C 16.09375 4.78125 16.59375 6.441406 17.59375 7.609375 C 18.59375 8.773438 19.757812 9.359375 21.09375 9.359375 Z M 21.09375 9.359375 "/></g></g></g><g transform="matrix(1, 0, 0, 1, 76, 46)"><g clip-path="url(#773a0b79c3)"><g fill="#ffffff" fill-opacity="1"><g transform="translate(0.103698, 192.594355)"><g><path d="M 65.28125 -1.84375 L 54.875 -10.578125 L 92.640625 -49.34375 C 93.421875 -50.007812 94.003906 -50.566406 94.390625 -51.015625 C 94.785156 -51.460938 95.039062 -51.800781 95.15625 -52.03125 L 5.875 -52.03125 L 5.875 -66.125 L 95.328125 -66.125 C 95.097656 -66.457031 94.785156 -66.816406 94.390625 -67.203125 C 94.003906 -67.597656 93.421875 -68.191406 92.640625 -68.984375 L 55.21875 -107.078125 L 65.125 -116.3125 L 106.578125 -74.015625 C 109.367188 -71.210938 111.460938 -68.691406 112.859375 -66.453125 C 114.265625 -64.222656 114.96875 -61.820312 114.96875 -59.25 C 114.96875 -56.78125 114.265625 -54.34375 112.859375 -51.9375 C 111.460938 -49.53125 109.367188 -46.929688 106.578125 -44.140625 Z M 65.28125 -1.84375 "/></g></g></g></g></g></g></g></svg>