<svg xmlns="http://www.w3.org/2000/svg" xmlns:xlink="http://www.w3.org/1999/xlink" width="768" zoomAndPan="magnify" viewBox="0 0 576 172.499995" height="230" preserveAspectRatio="xMidYMid meet" version="1.0"><defs><g/><clipPath id="07a738a640"><path d="M 213 25 L 525.375 25 L 525.375 121 L 213 121 Z M 213 25 " clip-rule="nonzero"/></clipPath><clipPath id="9a2b9a2bcb"><rect x="0" width="313" y="0" height="96"/></clipPath><clipPath id="f019a73810"><rect x="0" width="526" y="0" height="140"/></clipPath></defs><g transform="matrix(1, 0, 0, 1, 34, 16)"><g clip-path="url(#f019a73810)"><g clip-path="url(#07a738a640)"><g transform="matrix(1, 0, 0, 1, 213, 25)"><g clip-path="url(#9a2b9a2bcb)"><g fill="#222222" fill-opacity="1"><g transform="translate(0.979157, 35.797559)"><g><path d="M 17.6875 0.390625 C 16.34375 0.390625 15.140625 0.0976562 14.078125 -0.484375 C 13.015625 -1.078125 12.171875 -1.894531 11.546875 -2.9375 C 10.929688 -3.976562 10.625 -5.160156 10.625 -6.484375 L 10.625 -16.25 C 10.625 -16.59375 10.539062 -16.898438 10.375 -17.171875 C 10.207031 -17.453125 9.984375 -17.675781 9.703125 -17.84375 C 9.429688 -18.007812 9.125 -18.09375 8.78125 -18.09375 C 8.4375 -18.09375 8.125 -18.007812 7.84375 -17.84375 C 7.570312 -17.675781 7.351562 -17.453125 7.1875 -17.171875 C 7.03125 -16.898438 6.953125 -16.59375 6.953125 -16.25 L 6.953125 0 L 1.71875 0 L 1.71875 -15.859375 C 1.71875 -17.203125 2.019531 -18.382812 2.625 -19.40625 C 3.238281 -20.425781 4.082031 -21.234375 5.15625 -21.828125 C 6.226562 -22.429688 7.4375 -22.734375 8.78125 -22.734375 C 10.144531 -22.734375 11.359375 -22.429688 12.421875 -21.828125 C 13.484375 -21.234375 14.320312 -20.425781 14.9375 -19.40625 C 15.550781 -18.382812 15.859375 -17.203125 15.859375 -15.859375 L 15.859375 -6.09375 C 15.859375 -5.757812 15.941406 -5.445312 16.109375 -5.15625 C 16.285156 -4.863281 16.503906 -4.640625 16.765625 -4.484375 C 17.035156 -4.328125 17.332031 -4.25 17.65625 -4.25 C 17.988281 -4.25 18.300781 -4.328125 18.59375 -4.484375 C 18.882812 -4.640625 19.113281 -4.863281 19.28125 -5.15625 C 19.445312 -5.445312 19.53125 -5.757812 19.53125 -6.09375 L 19.53125 -22.34375 L 24.734375 -22.34375 L 24.734375 -6.484375 C 24.734375 -5.160156 24.425781 -3.976562 23.8125 -2.9375 C 23.195312 -1.894531 22.359375 -1.078125 21.296875 -0.484375 C 20.234375 0.0976562 19.03125 0.390625 17.6875 0.390625 Z M 17.6875 0.390625 "/></g></g></g><g fill="#222222" fill-opacity="1"><g transform="translate(27.471967, 35.797559)"><g><path d="M 0 0 L 7.25 -19.765625 C 7.601562 -20.742188 8.195312 -21.484375 9.03125 -21.984375 C 9.863281 -22.484375 10.800781 -22.734375 11.84375 -22.734375 C 12.882812 -22.734375 13.816406 -22.492188 14.640625 -22.015625 C 15.472656 -21.535156 16.070312 -20.796875 16.4375 -19.796875 L 23.71875 0 L 17.9375 0 L 16.53125 -4.3125 L 7.0625 -4.3125 L 5.59375 0 Z M 8.421875 -8.75 L 15.15625 -8.75 L 12.328125 -17.65625 C 12.285156 -17.78125 12.222656 -17.867188 12.140625 -17.921875 C 12.066406 -17.972656 11.976562 -18 11.875 -18 C 11.769531 -18 11.675781 -17.96875 11.59375 -17.90625 C 11.519531 -17.84375 11.472656 -17.757812 11.453125 -17.65625 Z M 8.421875 -8.75 "/></g></g></g><g fill="#222222" fill-opacity="1"><g transform="translate(50.230263, 35.797559)"><g><path d="M 18.03125 6.953125 C 16.71875 6.953125 15.59375 6.71875 14.65625 6.25 C 13.71875 5.78125 13.003906 5.117188 12.515625 4.265625 C 12.023438 3.421875 11.78125 2.4375 11.78125 1.3125 C 11.78125 1.070312 11.785156 0.828125 11.796875 0.578125 C 11.804688 0.335938 11.832031 0.0820312 11.875 -0.1875 C 10.238281 -0.207031 8.75 -0.515625 7.40625 -1.109375 C 6.0625 -1.710938 4.90625 -2.523438 3.9375 -3.546875 C 2.96875 -4.566406 2.222656 -5.75 1.703125 -7.09375 C 1.179688 -8.445312 0.921875 -9.890625 0.921875 -11.421875 C 0.921875 -13.003906 1.191406 -14.472656 1.734375 -15.828125 C 2.273438 -17.191406 3.050781 -18.390625 4.0625 -19.421875 C 5.082031 -20.453125 6.300781 -21.257812 7.71875 -21.84375 C 9.144531 -22.4375 10.734375 -22.734375 12.484375 -22.734375 C 14.222656 -22.734375 15.804688 -22.453125 17.234375 -21.890625 C 18.660156 -21.335938 19.882812 -20.550781 20.90625 -19.53125 C 21.925781 -18.507812 22.707031 -17.328125 23.25 -15.984375 C 23.789062 -14.648438 24.0625 -13.195312 24.0625 -11.625 L 24.0625 0.671875 C 24.0625 1.796875 23.84375 2.835938 23.40625 3.796875 C 22.976562 4.753906 22.316406 5.519531 21.421875 6.09375 C 20.523438 6.664062 19.394531 6.953125 18.03125 6.953125 Z M 17.75 2.390625 C 18.15625 2.390625 18.46875 2.222656 18.6875 1.890625 C 18.914062 1.566406 19.03125 1.140625 19.03125 0.609375 L 19.03125 -4.59375 C 18.582031 -4.207031 18.191406 -3.8125 17.859375 -3.40625 C 17.523438 -3.007812 17.265625 -2.59375 17.078125 -2.15625 C 16.890625 -1.71875 16.742188 -1.269531 16.640625 -0.8125 C 16.546875 -0.351562 16.5 0.117188 16.5 0.609375 C 16.5 0.992188 16.550781 1.316406 16.65625 1.578125 C 16.769531 1.847656 16.925781 2.050781 17.125 2.1875 C 17.320312 2.320312 17.53125 2.390625 17.75 2.390625 Z M 12.296875 -4.71875 C 12.523438 -4.71875 12.738281 -4.726562 12.9375 -4.75 C 13.144531 -4.769531 13.351562 -4.804688 13.5625 -4.859375 C 13.945312 -5.429688 14.394531 -6 14.90625 -6.5625 C 15.414062 -7.125 15.988281 -7.671875 16.625 -8.203125 C 17.269531 -8.734375 17.972656 -9.234375 18.734375 -9.703125 L 18.734375 -11.78125 C 18.734375 -12.695312 18.578125 -13.546875 18.265625 -14.328125 C 17.960938 -15.117188 17.53125 -15.800781 16.96875 -16.375 C 16.40625 -16.945312 15.742188 -17.394531 14.984375 -17.71875 C 14.234375 -18.039062 13.410156 -18.203125 12.515625 -18.203125 C 11.617188 -18.203125 10.789062 -18.035156 10.03125 -17.703125 C 9.28125 -17.367188 8.625 -16.894531 8.0625 -16.28125 C 7.5 -15.664062 7.0625 -14.945312 6.75 -14.125 C 6.4375 -13.300781 6.28125 -12.410156 6.28125 -11.453125 C 6.28125 -10.503906 6.425781 -9.625 6.71875 -8.8125 C 7.007812 -8 7.425781 -7.289062 7.96875 -6.6875 C 8.507812 -6.082031 9.144531 -5.609375 9.875 -5.265625 C 10.613281 -4.921875 11.421875 -4.738281 12.296875 -4.71875 Z M 12.296875 -4.71875 "/></g></g></g><g fill="#222222" fill-opacity="1"><g transform="translate(75.76551, 35.797559)"><g><path d="M 0 0 L 7.25 -19.765625 C 7.601562 -20.742188 8.195312 -21.484375 9.03125 -21.984375 C 9.863281 -22.484375 10.800781 -22.734375 11.84375 -22.734375 C 12.882812 -22.734375 13.816406 -22.492188 14.640625 -22.015625 C 15.472656 -21.535156 16.070312 -20.796875 16.4375 -19.796875 L 23.71875 0 L 17.9375 0 L 16.53125 -4.3125 L 7.0625 -4.3125 L 5.59375 0 Z M 8.421875 -8.75 L 15.15625 -8.75 L 12.328125 -17.65625 C 12.285156 -17.78125 12.222656 -17.867188 12.140625 -17.921875 C 12.066406 -17.972656 11.976562 -18 11.875 -18 C 11.769531 -18 11.675781 -17.96875 11.59375 -17.90625 C 11.519531 -17.84375 11.472656 -17.757812 11.453125 -17.65625 Z M 8.421875 -8.75 "/></g></g></g><g fill="#222222" fill-opacity="1"><g transform="translate(98.523806, 35.797559)"><g><path d="M 12.765625 0.421875 C 10.984375 0.421875 9.367188 0.125 7.921875 -0.46875 C 6.472656 -1.070312 5.226562 -1.90625 4.1875 -2.96875 C 3.144531 -4.03125 2.335938 -5.265625 1.765625 -6.671875 C 1.203125 -8.078125 0.921875 -9.585938 0.921875 -11.203125 C 0.921875 -12.816406 1.203125 -14.328125 1.765625 -15.734375 C 2.335938 -17.140625 3.140625 -18.367188 4.171875 -19.421875 C 5.203125 -20.472656 6.445312 -21.289062 7.90625 -21.875 C 9.363281 -22.46875 10.984375 -22.765625 12.765625 -22.765625 C 14.535156 -22.765625 16.148438 -22.46875 17.609375 -21.875 C 19.066406 -21.289062 20.3125 -20.472656 21.34375 -19.421875 C 22.375 -18.367188 23.175781 -17.132812 23.75 -15.71875 C 24.320312 -14.300781 24.609375 -12.796875 24.609375 -11.203125 C 24.609375 -9.585938 24.320312 -8.078125 23.75 -6.671875 C 23.175781 -5.265625 22.375 -4.03125 21.34375 -2.96875 C 20.3125 -1.90625 19.066406 -1.070312 17.609375 -0.46875 C 16.148438 0.125 14.535156 0.421875 12.765625 0.421875 Z M 12.765625 -4.15625 C 13.703125 -4.15625 14.566406 -4.328125 15.359375 -4.671875 C 16.160156 -5.023438 16.847656 -5.519531 17.421875 -6.15625 C 18.003906 -6.800781 18.453125 -7.550781 18.765625 -8.40625 C 19.085938 -9.269531 19.25 -10.203125 19.25 -11.203125 C 19.25 -12.203125 19.085938 -13.128906 18.765625 -13.984375 C 18.453125 -14.835938 18.003906 -15.582031 17.421875 -16.21875 C 16.847656 -16.851562 16.160156 -17.347656 15.359375 -17.703125 C 14.566406 -18.054688 13.703125 -18.234375 12.765625 -18.234375 C 11.804688 -18.234375 10.929688 -18.054688 10.140625 -17.703125 C 9.359375 -17.347656 8.675781 -16.851562 8.09375 -16.21875 C 7.507812 -15.582031 7.0625 -14.832031 6.75 -13.96875 C 6.4375 -13.101562 6.28125 -12.179688 6.28125 -11.203125 C 6.28125 -10.203125 6.4375 -9.269531 6.75 -8.40625 C 7.0625 -7.550781 7.507812 -6.800781 8.09375 -6.15625 C 8.675781 -5.519531 9.359375 -5.023438 10.140625 -4.671875 C 10.929688 -4.328125 11.804688 -4.15625 12.765625 -4.15625 Z M 12.765625 -4.15625 "/></g></g></g><g fill="#222222" fill-opacity="1"><g transform="translate(124.027117, 35.797559)"><g/></g></g><g fill="#222222" fill-opacity="1"><g transform="translate(132.485662, 35.797559)"><g><path d="M 2.078125 0 L 2.078125 -4.46875 L 11.625 -4.46875 C 12.050781 -4.46875 12.429688 -4.570312 12.765625 -4.78125 C 13.109375 -5 13.378906 -5.273438 13.578125 -5.609375 C 13.785156 -5.953125 13.890625 -6.328125 13.890625 -6.734375 C 13.890625 -7.160156 13.785156 -7.539062 13.578125 -7.875 C 13.378906 -8.21875 13.109375 -8.492188 12.765625 -8.703125 C 12.429688 -8.921875 12.050781 -9.03125 11.625 -9.03125 L 8.171875 -9.03125 C 6.867188 -9.03125 5.6875 -9.285156 4.625 -9.796875 C 3.5625 -10.304688 2.71875 -11.054688 2.09375 -12.046875 C 1.46875 -13.035156 1.15625 -14.222656 1.15625 -15.609375 C 1.15625 -16.972656 1.453125 -18.15625 2.046875 -19.15625 C 2.640625 -20.15625 3.445312 -20.9375 4.46875 -21.5 C 5.488281 -22.0625 6.617188 -22.34375 7.859375 -22.34375 L 17.71875 -22.34375 L 17.71875 -17.875 L 8.453125 -17.875 C 8.078125 -17.875 7.726562 -17.773438 7.40625 -17.578125 C 7.082031 -17.390625 6.835938 -17.132812 6.671875 -16.8125 C 6.503906 -16.5 6.421875 -16.148438 6.421875 -15.765625 C 6.421875 -15.378906 6.503906 -15.03125 6.671875 -14.71875 C 6.835938 -14.414062 7.082031 -14.164062 7.40625 -13.96875 C 7.726562 -13.78125 8.078125 -13.6875 8.453125 -13.6875 L 12.0625 -13.6875 C 13.488281 -13.6875 14.726562 -13.414062 15.78125 -12.875 C 16.832031 -12.332031 17.648438 -11.578125 18.234375 -10.609375 C 18.828125 -9.640625 19.125 -8.507812 19.125 -7.21875 C 19.125 -5.6875 18.816406 -4.378906 18.203125 -3.296875 C 17.597656 -2.222656 16.785156 -1.40625 15.765625 -0.84375 C 14.742188 -0.28125 13.617188 0 12.390625 0 Z M 2.078125 0 "/></g></g></g><g fill="#222222" fill-opacity="1"><g transform="translate(152.626584, 35.797559)"><g><path d="M 12.765625 0.421875 C 10.984375 0.421875 9.367188 0.125 7.921875 -0.46875 C 6.472656 -1.070312 5.226562 -1.90625 4.1875 -2.96875 C 3.144531 -4.03125 2.335938 -5.265625 1.765625 -6.671875 C 1.203125 -8.078125 0.921875 -9.585938 0.921875 -11.203125 C 0.921875 -12.816406 1.203125 -14.328125 1.765625 -15.734375 C 2.335938 -17.140625 3.140625 -18.367188 4.171875 -19.421875 C 5.203125 -20.472656 6.445312 -21.289062 7.90625 -21.875 C 9.363281 -22.46875 10.984375 -22.765625 12.765625 -22.765625 C 14.535156 -22.765625 16.148438 -22.46875 17.609375 -21.875 C 19.066406 -21.289062 20.3125 -20.472656 21.34375 -19.421875 C 22.375 -18.367188 23.175781 -17.132812 23.75 -15.71875 C 24.320312 -14.300781 24.609375 -12.796875 24.609375 -11.203125 C 24.609375 -9.585938 24.320312 -8.078125 23.75 -6.671875 C 23.175781 -5.265625 22.375 -4.03125 21.34375 -2.96875 C 20.3125 -1.90625 19.066406 -1.070312 17.609375 -0.46875 C 16.148438 0.125 14.535156 0.421875 12.765625 0.421875 Z M 12.765625 -4.15625 C 13.703125 -4.15625 14.566406 -4.328125 15.359375 -4.671875 C 16.160156 -5.023438 16.847656 -5.519531 17.421875 -6.15625 C 18.003906 -6.800781 18.453125 -7.550781 18.765625 -8.40625 C 19.085938 -9.269531 19.25 -10.203125 19.25 -11.203125 C 19.25 -12.203125 19.085938 -13.128906 18.765625 -13.984375 C 18.453125 -14.835938 18.003906 -15.582031 17.421875 -16.21875 C 16.847656 -16.851562 16.160156 -17.347656 15.359375 -17.703125 C 14.566406 -18.054688 13.703125 -18.234375 12.765625 -18.234375 C 11.804688 -18.234375 10.929688 -18.054688 10.140625 -17.703125 C 9.359375 -17.347656 8.675781 -16.851562 8.09375 -16.21875 C 7.507812 -15.582031 7.0625 -14.832031 6.75 -13.96875 C 6.4375 -13.101562 6.28125 -12.179688 6.28125 -11.203125 C 6.28125 -10.203125 6.4375 -9.269531 6.75 -8.40625 C 7.0625 -7.550781 7.507812 -6.800781 8.09375 -6.15625 C 8.675781 -5.519531 9.359375 -5.023438 10.140625 -4.671875 C 10.929688 -4.328125 11.804688 -4.15625 12.765625 -4.15625 Z M 12.765625 -4.15625 "/></g></g></g><g fill="#222222" fill-opacity="1"><g transform="translate(178.129894, 35.797559)"><g><path d="M 1.65625 0 L 1.65625 -15.734375 C 1.65625 -16.972656 1.957031 -18.09375 2.5625 -19.09375 C 3.175781 -20.09375 4 -20.882812 5.03125 -21.46875 C 6.0625 -22.050781 7.210938 -22.34375 8.484375 -22.34375 L 16.828125 -22.34375 L 16.828125 -17.875 L 9.15625 -17.875 C 8.5625 -17.875 8.054688 -17.660156 7.640625 -17.234375 C 7.222656 -16.804688 7.015625 -16.285156 7.015625 -15.671875 L 7.015625 -12.453125 L 15.734375 -12.453125 L 15.734375 -8.015625 L 7.015625 -8.015625 L 7.015625 0 Z M 1.65625 0 "/></g></g></g><g fill="#222222" fill-opacity="1"><g transform="translate(195.908809, 35.797559)"><g><path d="M 13.4375 0 C 12.070312 0 10.875 -0.300781 9.84375 -0.90625 C 8.8125 -1.507812 8.003906 -2.320312 7.421875 -3.34375 C 6.835938 -4.375 6.546875 -5.515625 6.546875 -6.765625 L 6.546875 -17.875 L 0.484375 -17.875 L 0.484375 -22.34375 L 17.9375 -22.34375 L 17.9375 -17.875 L 11.90625 -17.875 L 11.90625 -6.28125 C 11.90625 -5.789062 12.070312 -5.363281 12.40625 -5 C 12.75 -4.644531 13.175781 -4.46875 13.6875 -4.46875 L 15.453125 -4.46875 L 15.453125 0 Z M 13.4375 0 "/></g></g></g><g fill="#222222" fill-opacity="1"><g transform="translate(214.326099, 35.797559)"><g><path d="M 10.71875 0.390625 C 8.957031 0.390625 7.398438 0.0351562 6.046875 -0.671875 C 4.691406 -1.390625 3.628906 -2.421875 2.859375 -3.765625 C 2.097656 -5.109375 1.71875 -6.691406 1.71875 -8.515625 L 1.71875 -22.34375 L 6.984375 -22.34375 L 6.984375 -8.328125 C 6.984375 -7.566406 7.132812 -6.875 7.4375 -6.25 C 7.738281 -5.632812 8.171875 -5.144531 8.734375 -4.78125 C 9.296875 -4.425781 9.957031 -4.25 10.71875 -4.25 C 11.488281 -4.25 12.148438 -4.425781 12.703125 -4.78125 C 13.253906 -5.144531 13.679688 -5.632812 13.984375 -6.25 C 14.296875 -6.875 14.453125 -7.566406 14.453125 -8.328125 L 14.453125 -22.34375 L 19.734375 -22.34375 L 19.734375 -8.328125 C 19.734375 -7.566406 19.878906 -6.875 20.171875 -6.25 C 20.472656 -5.632812 20.90625 -5.144531 21.46875 -4.78125 C 22.03125 -4.425781 22.695312 -4.25 23.46875 -4.25 C 24.226562 -4.25 24.890625 -4.425781 25.453125 -4.78125 C 26.015625 -5.144531 26.445312 -5.632812 26.75 -6.25 C 27.050781 -6.875 27.203125 -7.566406 27.203125 -8.328125 L 27.203125 -22.34375 L 32.46875 -22.34375 L 32.46875 -8.515625 C 32.46875 -6.691406 32.082031 -5.109375 31.3125 -3.765625 C 30.550781 -2.421875 29.492188 -1.390625 28.140625 -0.671875 C 26.785156 0.0351562 25.226562 0.390625 23.46875 0.390625 C 22.59375 0.390625 21.765625 0.285156 20.984375 0.078125 C 20.210938 -0.117188 19.5 -0.421875 18.84375 -0.828125 C 18.195312 -1.234375 17.609375 -1.722656 17.078125 -2.296875 C 16.566406 -1.722656 15.976562 -1.238281 15.3125 -0.84375 C 14.65625 -0.445312 13.941406 -0.144531 13.171875 0.0625 C 12.410156 0.28125 11.59375 0.390625 10.71875 0.390625 Z M 10.71875 0.390625 "/></g></g></g><g fill="#222222" fill-opacity="1"><g transform="translate(248.511404, 35.797559)"><g><path d="M 0 0 L 7.25 -19.765625 C 7.601562 -20.742188 8.195312 -21.484375 9.03125 -21.984375 C 9.863281 -22.484375 10.800781 -22.734375 11.84375 -22.734375 C 12.882812 -22.734375 13.816406 -22.492188 14.640625 -22.015625 C 15.472656 -21.535156 16.070312 -20.796875 16.4375 -19.796875 L 23.71875 0 L 17.9375 0 L 16.53125 -4.3125 L 7.0625 -4.3125 L 5.59375 0 Z M 8.421875 -8.75 L 15.15625 -8.75 L 12.328125 -17.65625 C 12.285156 -17.78125 12.222656 -17.867188 12.140625 -17.921875 C 12.066406 -17.972656 11.976562 -18 11.875 -18 C 11.769531 -18 11.675781 -17.96875 11.59375 -17.90625 C 11.519531 -17.84375 11.472656 -17.757812 11.453125 -17.65625 Z M 8.421875 -8.75 "/></g></g></g><g fill="#222222" fill-opacity="1"><g transform="translate(271.748481, 35.797559)"><g><path d="M 1.953125 0 L 1.953125 -22.34375 L 12.15625 -22.34375 C 13.664062 -22.34375 15.039062 -22.007812 16.28125 -21.34375 C 17.53125 -20.6875 18.519531 -19.773438 19.25 -18.609375 C 19.988281 -17.441406 20.359375 -16.09375 20.359375 -14.5625 C 20.359375 -13.132812 20.019531 -11.847656 19.34375 -10.703125 C 18.664062 -9.566406 17.769531 -8.648438 16.65625 -7.953125 L 18.453125 -4.921875 C 18.554688 -4.765625 18.675781 -4.644531 18.8125 -4.5625 C 18.957031 -4.476562 19.144531 -4.4375 19.375 -4.4375 L 21.359375 -4.4375 L 21.359375 0 L 18.234375 0 C 17.273438 0 16.398438 -0.226562 15.609375 -0.6875 C 14.816406 -1.144531 14.203125 -1.742188 13.765625 -2.484375 L 11.359375 -6.734375 C 11.210938 -6.734375 11.054688 -6.734375 10.890625 -6.734375 C 10.734375 -6.734375 10.570312 -6.734375 10.40625 -6.734375 L 7.3125 -6.734375 L 7.3125 0 Z M 7.3125 -11.171875 L 11.5625 -11.171875 C 12.175781 -11.171875 12.75 -11.300781 13.28125 -11.5625 C 13.8125 -11.832031 14.226562 -12.21875 14.53125 -12.71875 C 14.84375 -13.21875 15 -13.820312 15 -14.53125 C 15 -15.226562 14.835938 -15.828125 14.515625 -16.328125 C 14.203125 -16.828125 13.785156 -17.207031 13.265625 -17.46875 C 12.742188 -17.738281 12.175781 -17.875 11.5625 -17.875 L 7.3125 -17.875 Z M 7.3125 -11.171875 "/></g></g></g><g fill="#222222" fill-opacity="1"><g transform="translate(293.581133, 35.797559)"><g><path d="M 7.921875 0 C 6.660156 0 5.519531 -0.289062 4.5 -0.875 C 3.476562 -1.457031 2.664062 -2.242188 2.0625 -3.234375 C 1.457031 -4.222656 1.15625 -5.347656 1.15625 -6.609375 C 1.15625 -7.546875 1.359375 -8.421875 1.765625 -9.234375 C 2.179688 -10.054688 2.742188 -10.765625 3.453125 -11.359375 C 2.765625 -11.929688 2.222656 -12.613281 1.828125 -13.40625 C 1.441406 -14.195312 1.25 -15.023438 1.25 -15.890625 C 1.25 -17.128906 1.546875 -18.234375 2.140625 -19.203125 C 2.734375 -20.171875 3.53125 -20.9375 4.53125 -21.5 C 5.53125 -22.0625 6.640625 -22.34375 7.859375 -22.34375 L 17.265625 -22.34375 L 17.265625 -17.875 L 8.6875 -17.875 C 8.28125 -17.875 7.90625 -17.773438 7.5625 -17.578125 C 7.226562 -17.390625 6.957031 -17.132812 6.75 -16.8125 C 6.550781 -16.5 6.453125 -16.128906 6.453125 -15.703125 C 6.453125 -15.296875 6.550781 -14.925781 6.75 -14.59375 C 6.957031 -14.269531 7.226562 -14.015625 7.5625 -13.828125 C 7.90625 -13.648438 8.28125 -13.5625 8.6875 -13.5625 L 16.1875 -13.5625 L 16.1875 -9.09375 L 8.84375 -9.09375 C 8.394531 -9.09375 7.988281 -8.984375 7.625 -8.765625 C 7.269531 -8.554688 6.984375 -8.28125 6.765625 -7.9375 C 6.554688 -7.601562 6.453125 -7.210938 6.453125 -6.765625 C 6.453125 -6.335938 6.554688 -5.945312 6.765625 -5.59375 C 6.984375 -5.25 7.269531 -4.976562 7.625 -4.78125 C 7.988281 -4.59375 8.394531 -4.5 8.84375 -4.5 L 17.265625 -4.5 L 17.265625 0 Z M 7.921875 0 "/></g></g></g><g fill="#222222" fill-opacity="1"><g transform="translate(0.979157, 80.256047)"><g><path d="M 1.953125 0 L 1.953125 -22.34375 L 10.15625 -22.34375 C 12.507812 -22.34375 14.550781 -21.863281 16.28125 -20.90625 C 18.019531 -19.945312 19.375 -18.625 20.34375 -16.9375 C 21.3125 -15.257812 21.796875 -13.335938 21.796875 -11.171875 C 21.796875 -9.003906 21.3125 -7.078125 20.34375 -5.390625 C 19.375 -3.710938 18.019531 -2.394531 16.28125 -1.4375 C 14.550781 -0.476562 12.507812 0 10.15625 0 Z M 7.3125 -4.46875 L 10.03125 -4.46875 C 11.257812 -4.46875 12.359375 -4.738281 13.328125 -5.28125 C 14.296875 -5.820312 15.054688 -6.59375 15.609375 -7.59375 C 16.160156 -8.59375 16.4375 -9.785156 16.4375 -11.171875 C 16.4375 -12.554688 16.160156 -13.75 15.609375 -14.75 C 15.054688 -15.75 14.296875 -16.519531 13.328125 -17.0625 C 12.359375 -17.601562 11.257812 -17.875 10.03125 -17.875 L 7.3125 -17.875 Z M 7.3125 -4.46875 "/></g></g></g><g fill="#222222" fill-opacity="1"><g transform="translate(23.673598, 80.256047)"><g><path d="M 7.921875 0 C 6.660156 0 5.519531 -0.289062 4.5 -0.875 C 3.476562 -1.457031 2.664062 -2.242188 2.0625 -3.234375 C 1.457031 -4.222656 1.15625 -5.347656 1.15625 -6.609375 C 1.15625 -7.546875 1.359375 -8.421875 1.765625 -9.234375 C 2.179688 -10.054688 2.742188 -10.765625 3.453125 -11.359375 C 2.765625 -11.929688 2.222656 -12.613281 1.828125 -13.40625 C 1.441406 -14.195312 1.25 -15.023438 1.25 -15.890625 C 1.25 -17.128906 1.546875 -18.234375 2.140625 -19.203125 C 2.734375 -20.171875 3.53125 -20.9375 4.53125 -21.5 C 5.53125 -22.0625 6.640625 -22.34375 7.859375 -22.34375 L 17.265625 -22.34375 L 17.265625 -17.875 L 8.6875 -17.875 C 8.28125 -17.875 7.90625 -17.773438 7.5625 -17.578125 C 7.226562 -17.390625 6.957031 -17.132812 6.75 -16.8125 C 6.550781 -16.5 6.453125 -16.128906 6.453125 -15.703125 C 6.453125 -15.296875 6.550781 -14.925781 6.75 -14.59375 C 6.957031 -14.269531 7.226562 -14.015625 7.5625 -13.828125 C 7.90625 -13.648438 8.28125 -13.5625 8.6875 -13.5625 L 16.1875 -13.5625 L 16.1875 -9.09375 L 8.84375 -9.09375 C 8.394531 -9.09375 7.988281 -8.984375 7.625 -8.765625 C 7.269531 -8.554688 6.984375 -8.28125 6.765625 -7.9375 C 6.554688 -7.601562 6.453125 -7.210938 6.453125 -6.765625 C 6.453125 -6.335938 6.554688 -5.945312 6.765625 -5.59375 C 6.984375 -5.25 7.269531 -4.976562 7.625 -4.78125 C 7.988281 -4.59375 8.394531 -4.5 8.84375 -4.5 L 17.265625 -4.5 L 17.265625 0 Z M 7.921875 0 "/></g></g></g><g fill="#222222" fill-opacity="1"><g transform="translate(42.186645, 80.256047)"><g><path d="M 11.390625 0.390625 C 10.328125 0.390625 9.382812 0.144531 8.5625 -0.34375 C 7.75 -0.832031 7.160156 -1.578125 6.796875 -2.578125 L 0 -22.34375 L 5.78125 -22.34375 L 10.953125 -5.046875 C 10.992188 -4.921875 11.050781 -4.820312 11.125 -4.75 C 11.195312 -4.6875 11.285156 -4.65625 11.390625 -4.65625 C 11.503906 -4.65625 11.597656 -4.679688 11.671875 -4.734375 C 11.742188 -4.785156 11.800781 -4.890625 11.84375 -5.046875 L 17.109375 -22.34375 L 22.765625 -22.34375 L 16 -2.578125 C 15.65625 -1.628906 15.066406 -0.894531 14.234375 -0.375 C 13.410156 0.132812 12.460938 0.390625 11.390625 0.390625 Z M 11.390625 0.390625 "/></g></g></g><g fill="#222222" fill-opacity="1"><g transform="translate(64.944923, 80.256047)"><g><path d="M 7.921875 0 C 6.660156 0 5.519531 -0.289062 4.5 -0.875 C 3.476562 -1.457031 2.664062 -2.242188 2.0625 -3.234375 C 1.457031 -4.222656 1.15625 -5.347656 1.15625 -6.609375 C 1.15625 -7.546875 1.359375 -8.421875 1.765625 -9.234375 C 2.179688 -10.054688 2.742188 -10.765625 3.453125 -11.359375 C 2.765625 -11.929688 2.222656 -12.613281 1.828125 -13.40625 C 1.441406 -14.195312 1.25 -15.023438 1.25 -15.890625 C 1.25 -17.128906 1.546875 -18.234375 2.140625 -19.203125 C 2.734375 -20.171875 3.53125 -20.9375 4.53125 -21.5 C 5.53125 -22.0625 6.640625 -22.34375 7.859375 -22.34375 L 17.265625 -22.34375 L 17.265625 -17.875 L 8.6875 -17.875 C 8.28125 -17.875 7.90625 -17.773438 7.5625 -17.578125 C 7.226562 -17.390625 6.957031 -17.132812 6.75 -16.8125 C 6.550781 -16.5 6.453125 -16.128906 6.453125 -15.703125 C 6.453125 -15.296875 6.550781 -14.925781 6.75 -14.59375 C 6.957031 -14.269531 7.226562 -14.015625 7.5625 -13.828125 C 7.90625 -13.648438 8.28125 -13.5625 8.6875 -13.5625 L 16.1875 -13.5625 L 16.1875 -9.09375 L 8.84375 -9.09375 C 8.394531 -9.09375 7.988281 -8.984375 7.625 -8.765625 C 7.269531 -8.554688 6.984375 -8.28125 6.765625 -7.9375 C 6.554688 -7.601562 6.453125 -7.210938 6.453125 -6.765625 C 6.453125 -6.335938 6.554688 -5.945312 6.765625 -5.59375 C 6.984375 -5.25 7.269531 -4.976562 7.625 -4.78125 C 7.988281 -4.59375 8.394531 -4.5 8.84375 -4.5 L 17.265625 -4.5 L 17.265625 0 Z M 7.921875 0 "/></g></g></g><g fill="#222222" fill-opacity="1"><g transform="translate(83.457969, 80.256047)"><g><path d="M 8.59375 0 C 7.207031 0 5.992188 -0.304688 4.953125 -0.921875 C 3.910156 -1.535156 3.097656 -2.351562 2.515625 -3.375 C 1.941406 -4.40625 1.65625 -5.535156 1.65625 -6.765625 L 1.65625 -22.34375 L 7.015625 -22.34375 L 7.015625 -6.390625 C 7.015625 -5.878906 7.195312 -5.429688 7.5625 -5.046875 C 7.925781 -4.660156 8.375 -4.46875 8.90625 -4.46875 L 14.8125 -4.46875 L 14.8125 0 Z M 8.59375 0 "/></g></g></g><g fill="#222222" fill-opacity="1"><g transform="translate(98.874877, 80.256047)"><g><path d="M 12.765625 0.421875 C 10.984375 0.421875 9.367188 0.125 7.921875 -0.46875 C 6.472656 -1.070312 5.226562 -1.90625 4.1875 -2.96875 C 3.144531 -4.03125 2.335938 -5.265625 1.765625 -6.671875 C 1.203125 -8.078125 0.921875 -9.585938 0.921875 -11.203125 C 0.921875 -12.816406 1.203125 -14.328125 1.765625 -15.734375 C 2.335938 -17.140625 3.140625 -18.367188 4.171875 -19.421875 C 5.203125 -20.472656 6.445312 -21.289062 7.90625 -21.875 C 9.363281 -22.46875 10.984375 -22.765625 12.765625 -22.765625 C 14.535156 -22.765625 16.148438 -22.46875 17.609375 -21.875 C 19.066406 -21.289062 20.3125 -20.472656 21.34375 -19.421875 C 22.375 -18.367188 23.175781 -17.132812 23.75 -15.71875 C 24.320312 -14.300781 24.609375 -12.796875 24.609375 -11.203125 C 24.609375 -9.585938 24.320312 -8.078125 23.75 -6.671875 C 23.175781 -5.265625 22.375 -4.03125 21.34375 -2.96875 C 20.3125 -1.90625 19.066406 -1.070312 17.609375 -0.46875 C 16.148438 0.125 14.535156 0.421875 12.765625 0.421875 Z M 12.765625 -4.15625 C 13.703125 -4.15625 14.566406 -4.328125 15.359375 -4.671875 C 16.160156 -5.023438 16.847656 -5.519531 17.421875 -6.15625 C 18.003906 -6.800781 18.453125 -7.550781 18.765625 -8.40625 C 19.085938 -9.269531 19.25 -10.203125 19.25 -11.203125 C 19.25 -12.203125 19.085938 -13.128906 18.765625 -13.984375 C 18.453125 -14.835938 18.003906 -15.582031 17.421875 -16.21875 C 16.847656 -16.851562 16.160156 -17.347656 15.359375 -17.703125 C 14.566406 -18.054688 13.703125 -18.234375 12.765625 -18.234375 C 11.804688 -18.234375 10.929688 -18.054688 10.140625 -17.703125 C 9.359375 -17.347656 8.675781 -16.851562 8.09375 -16.21875 C 7.507812 -15.582031 7.0625 -14.832031 6.75 -13.96875 C 6.4375 -13.101562 6.28125 -12.179688 6.28125 -11.203125 C 6.28125 -10.203125 6.4375 -9.269531 6.75 -8.40625 C 7.0625 -7.550781 7.507812 -6.800781 8.09375 -6.15625 C 8.675781 -5.519531 9.359375 -5.023438 10.140625 -4.671875 C 10.929688 -4.328125 11.804688 -4.15625 12.765625 -4.15625 Z M 12.765625 -4.15625 "/></g></g></g><g fill="#222222" fill-opacity="1"><g transform="translate(124.378188, 80.256047)"><g><path d="M 1.953125 0 L 1.953125 -22.34375 L 11.5625 -22.34375 C 13.050781 -22.34375 14.414062 -22 15.65625 -21.3125 C 16.90625 -20.632812 17.898438 -19.691406 18.640625 -18.484375 C 19.390625 -17.285156 19.765625 -15.898438 19.765625 -14.328125 C 19.765625 -12.753906 19.390625 -11.351562 18.640625 -10.125 C 17.898438 -8.90625 16.910156 -7.953125 15.671875 -7.265625 C 14.441406 -6.585938 13.070312 -6.25 11.5625 -6.25 L 7.3125 -6.25 L 7.3125 0 Z M 7.3125 -10.75 L 10.953125 -10.75 C 11.585938 -10.75 12.160156 -10.890625 12.671875 -11.171875 C 13.179688 -11.453125 13.59375 -11.859375 13.90625 -12.390625 C 14.226562 -12.921875 14.390625 -13.554688 14.390625 -14.296875 C 14.390625 -15.046875 14.226562 -15.6875 13.90625 -16.21875 C 13.59375 -16.75 13.175781 -17.15625 12.65625 -17.4375 C 12.132812 -17.726562 11.566406 -17.875 10.953125 -17.875 L 7.3125 -17.875 Z M 7.3125 -10.75 "/></g></g></g><g fill="#222222" fill-opacity="1"><g transform="translate(144.934054, 80.256047)"><g><path d="M 7.921875 0 C 6.660156 0 5.519531 -0.289062 4.5 -0.875 C 3.476562 -1.457031 2.664062 -2.242188 2.0625 -3.234375 C 1.457031 -4.222656 1.15625 -5.347656 1.15625 -6.609375 C 1.15625 -7.546875 1.359375 -8.421875 1.765625 -9.234375 C 2.179688 -10.054688 2.742188 -10.765625 3.453125 -11.359375 C 2.765625 -11.929688 2.222656 -12.613281 1.828125 -13.40625 C 1.441406 -14.195312 1.25 -15.023438 1.25 -15.890625 C 1.25 -17.128906 1.546875 -18.234375 2.140625 -19.203125 C 2.734375 -20.171875 3.53125 -20.9375 4.53125 -21.5 C 5.53125 -22.0625 6.640625 -22.34375 7.859375 -22.34375 L 17.265625 -22.34375 L 17.265625 -17.875 L 8.6875 -17.875 C 8.28125 -17.875 7.90625 -17.773438 7.5625 -17.578125 C 7.226562 -17.390625 6.957031 -17.132812 6.75 -16.8125 C 6.550781 -16.5 6.453125 -16.128906 6.453125 -15.703125 C 6.453125 -15.296875 6.550781 -14.925781 6.75 -14.59375 C 6.957031 -14.269531 7.226562 -14.015625 7.5625 -13.828125 C 7.90625 -13.648438 8.28125 -13.5625 8.6875 -13.5625 L 16.1875 -13.5625 L 16.1875 -9.09375 L 8.84375 -9.09375 C 8.394531 -9.09375 7.988281 -8.984375 7.625 -8.765625 C 7.269531 -8.554688 6.984375 -8.28125 6.765625 -7.9375 C 6.554688 -7.601562 6.453125 -7.210938 6.453125 -6.765625 C 6.453125 -6.335938 6.554688 -5.945312 6.765625 -5.59375 C 6.984375 -5.25 7.269531 -4.976562 7.625 -4.78125 C 7.988281 -4.59375 8.394531 -4.5 8.84375 -4.5 L 17.265625 -4.5 L 17.265625 0 Z M 7.921875 0 "/></g></g></g><g fill="#222222" fill-opacity="1"><g transform="translate(163.4471, 80.256047)"><g><path d="M 17.6875 0.390625 C 16.382812 0.390625 15.195312 0.101562 14.125 -0.46875 C 13.050781 -1.050781 12.195312 -1.851562 11.5625 -2.875 C 10.9375 -3.894531 10.625 -5.109375 10.625 -6.515625 L 10.625 -16.25 C 10.625 -16.59375 10.539062 -16.898438 10.375 -17.171875 C 10.207031 -17.453125 9.984375 -17.675781 9.703125 -17.84375 C 9.429688 -18.007812 9.125 -18.09375 8.78125 -18.09375 C 8.4375 -18.09375 8.125 -18.007812 7.84375 -17.84375 C 7.570312 -17.675781 7.351562 -17.453125 7.1875 -17.171875 C 7.03125 -16.898438 6.953125 -16.59375 6.953125 -16.25 L 6.953125 0 L 1.71875 0 L 1.71875 -15.859375 C 1.71875 -17.203125 2.019531 -18.382812 2.625 -19.40625 C 3.238281 -20.425781 4.082031 -21.234375 5.15625 -21.828125 C 6.226562 -22.429688 7.4375 -22.734375 8.78125 -22.734375 C 10.144531 -22.734375 11.359375 -22.429688 12.421875 -21.828125 C 13.484375 -21.234375 14.320312 -20.425781 14.9375 -19.40625 C 15.550781 -18.382812 15.859375 -17.203125 15.859375 -15.859375 L 15.859375 -6.125 C 15.859375 -5.769531 15.941406 -5.453125 16.109375 -5.171875 C 16.285156 -4.890625 16.503906 -4.671875 16.765625 -4.515625 C 17.035156 -4.359375 17.332031 -4.28125 17.65625 -4.28125 C 17.988281 -4.28125 18.300781 -4.359375 18.59375 -4.515625 C 18.882812 -4.671875 19.113281 -4.890625 19.28125 -5.171875 C 19.445312 -5.453125 19.53125 -5.769531 19.53125 -6.125 L 19.53125 -15.859375 C 19.53125 -17.203125 19.835938 -18.382812 20.453125 -19.40625 C 21.078125 -20.425781 21.925781 -21.234375 23 -21.828125 C 24.070312 -22.429688 25.269531 -22.734375 26.59375 -22.734375 C 27.957031 -22.734375 29.164062 -22.429688 30.21875 -21.828125 C 31.269531 -21.234375 32.101562 -20.425781 32.71875 -19.40625 C 33.332031 -18.382812 33.640625 -17.203125 33.640625 -15.859375 L 33.640625 0 L 28.40625 0 L 28.40625 -16.28125 C 28.40625 -16.625 28.328125 -16.925781 28.171875 -17.1875 C 28.015625 -17.457031 27.796875 -17.675781 27.515625 -17.84375 C 27.242188 -18.007812 26.9375 -18.09375 26.59375 -18.09375 C 26.269531 -18.09375 25.960938 -18.007812 25.671875 -17.84375 C 25.390625 -17.675781 25.160156 -17.457031 24.984375 -17.1875 C 24.816406 -16.925781 24.734375 -16.625 24.734375 -16.28125 L 24.734375 -6.515625 C 24.734375 -5.109375 24.414062 -3.894531 23.78125 -2.875 C 23.144531 -1.851562 22.289062 -1.050781 21.21875 -0.46875 C 20.15625 0.101562 18.976562 0.390625 17.6875 0.390625 Z M 17.6875 0.390625 "/></g></g></g><g fill="#222222" fill-opacity="1"><g transform="translate(198.813399, 80.256047)"><g><path d="M 7.921875 0 C 6.660156 0 5.519531 -0.289062 4.5 -0.875 C 3.476562 -1.457031 2.664062 -2.242188 2.0625 -3.234375 C 1.457031 -4.222656 1.15625 -5.347656 1.15625 -6.609375 C 1.15625 -7.546875 1.359375 -8.421875 1.765625 -9.234375 C 2.179688 -10.054688 2.742188 -10.765625 3.453125 -11.359375 C 2.765625 -11.929688 2.222656 -12.613281 1.828125 -13.40625 C 1.441406 -14.195312 1.25 -15.023438 1.25 -15.890625 C 1.25 -17.128906 1.546875 -18.234375 2.140625 -19.203125 C 2.734375 -20.171875 3.53125 -20.9375 4.53125 -21.5 C 5.53125 -22.0625 6.640625 -22.34375 7.859375 -22.34375 L 17.265625 -22.34375 L 17.265625 -17.875 L 8.6875 -17.875 C 8.28125 -17.875 7.90625 -17.773438 7.5625 -17.578125 C 7.226562 -17.390625 6.957031 -17.132812 6.75 -16.8125 C 6.550781 -16.5 6.453125 -16.128906 6.453125 -15.703125 C 6.453125 -15.296875 6.550781 -14.925781 6.75 -14.59375 C 6.957031 -14.269531 7.226562 -14.015625 7.5625 -13.828125 C 7.90625 -13.648438 8.28125 -13.5625 8.6875 -13.5625 L 16.1875 -13.5625 L 16.1875 -9.09375 L 8.84375 -9.09375 C 8.394531 -9.09375 7.988281 -8.984375 7.625 -8.765625 C 7.269531 -8.554688 6.984375 -8.28125 6.765625 -7.9375 C 6.554688 -7.601562 6.453125 -7.210938 6.453125 -6.765625 C 6.453125 -6.335938 6.554688 -5.945312 6.765625 -5.59375 C 6.984375 -5.25 7.269531 -4.976562 7.625 -4.78125 C 7.988281 -4.59375 8.394531 -4.5 8.84375 -4.5 L 17.265625 -4.5 L 17.265625 0 Z M 7.921875 0 "/></g></g></g><g fill="#222222" fill-opacity="1"><g transform="translate(217.326445, 80.256047)"><g><path d="M 17.6875 0.390625 C 16.34375 0.390625 15.140625 0.0976562 14.078125 -0.484375 C 13.015625 -1.078125 12.171875 -1.894531 11.546875 -2.9375 C 10.929688 -3.976562 10.625 -5.160156 10.625 -6.484375 L 10.625 -16.25 C 10.625 -16.59375 10.539062 -16.898438 10.375 -17.171875 C 10.207031 -17.453125 9.984375 -17.675781 9.703125 -17.84375 C 9.429688 -18.007812 9.125 -18.09375 8.78125 -18.09375 C 8.4375 -18.09375 8.125 -18.007812 7.84375 -17.84375 C 7.570312 -17.675781 7.351562 -17.453125 7.1875 -17.171875 C 7.03125 -16.898438 6.953125 -16.59375 6.953125 -16.25 L 6.953125 0 L 1.71875 0 L 1.71875 -15.859375 C 1.71875 -17.203125 2.019531 -18.382812 2.625 -19.40625 C 3.238281 -20.425781 4.082031 -21.234375 5.15625 -21.828125 C 6.226562 -22.429688 7.4375 -22.734375 8.78125 -22.734375 C 10.144531 -22.734375 11.359375 -22.429688 12.421875 -21.828125 C 13.484375 -21.234375 14.320312 -20.425781 14.9375 -19.40625 C 15.550781 -18.382812 15.859375 -17.203125 15.859375 -15.859375 L 15.859375 -6.09375 C 15.859375 -5.757812 15.941406 -5.445312 16.109375 -5.15625 C 16.285156 -4.863281 16.503906 -4.640625 16.765625 -4.484375 C 17.035156 -4.328125 17.332031 -4.25 17.65625 -4.25 C 17.988281 -4.25 18.300781 -4.328125 18.59375 -4.484375 C 18.882812 -4.640625 19.113281 -4.863281 19.28125 -5.15625 C 19.445312 -5.445312 19.53125 -5.757812 19.53125 -6.09375 L 19.53125 -22.34375 L 24.734375 -22.34375 L 24.734375 -6.484375 C 24.734375 -5.160156 24.425781 -3.976562 23.8125 -2.9375 C 23.195312 -1.894531 22.359375 -1.078125 21.296875 -0.484375 C 20.234375 0.0976562 19.03125 0.390625 17.6875 0.390625 Z M 17.6875 0.390625 "/></g></g></g><g fill="#222222" fill-opacity="1"><g transform="translate(243.819255, 80.256047)"><g><path d="M 13.4375 0 C 12.070312 0 10.875 -0.300781 9.84375 -0.90625 C 8.8125 -1.507812 8.003906 -2.320312 7.421875 -3.34375 C 6.835938 -4.375 6.546875 -5.515625 6.546875 -6.765625 L 6.546875 -17.875 L 0.484375 -17.875 L 0.484375 -22.34375 L 17.9375 -22.34375 L 17.9375 -17.875 L 11.90625 -17.875 L 11.90625 -6.28125 C 11.90625 -5.789062 12.070312 -5.363281 12.40625 -5 C 12.75 -4.644531 13.175781 -4.46875 13.6875 -4.46875 L 15.453125 -4.46875 L 15.453125 0 Z M 13.4375 0 "/></g></g></g></g></g></g><g fill="#222222" fill-opacity="1"><g transform="translate(0.350595, 99.548437)"><g><path d="M 18.5 15.703125 C 14.78125 11.222656 11.664062 5.679688 9.15625 -0.921875 C 6.65625 -7.523438 5.40625 -15.21875 5.40625 -24 C 5.40625 -32.789062 6.65625 -40.5 9.15625 -47.125 C 11.664062 -53.757812 14.78125 -59.289062 18.5 -63.71875 L 32.296875 -63.71875 C 28.453125 -59.175781 25.289062 -53.570312 22.8125 -46.90625 C 20.34375 -40.25 19.109375 -32.703125 19.109375 -24.265625 C 19.109375 -15.828125 20.34375 -8.25 22.8125 -1.53125 C 25.289062 5.1875 28.453125 10.929688 32.296875 15.703125 Z M 18.5 15.703125 "/></g></g></g><g fill="#222222" fill-opacity="1"><g transform="translate(32.645464, 99.548437)"><g><path d="M 0 15.703125 C 3.894531 10.929688 7.078125 5.1875 9.546875 -1.53125 C 12.023438 -8.25 13.265625 -15.828125 13.265625 -24.265625 C 13.265625 -32.703125 12.023438 -40.25 9.546875 -46.90625 C 7.078125 -53.570312 3.894531 -59.175781 0 -63.71875 L 13.796875 -63.71875 C 17.515625 -59.289062 20.625 -53.757812 23.125 -47.125 C 25.625 -40.5 26.875 -32.789062 26.875 -24 C 26.875 -15.21875 25.625 -7.523438 23.125 -0.921875 C 20.625 5.679688 17.515625 11.222656 13.796875 15.703125 Z M 0 15.703125 "/></g></g></g><g fill="#222222" fill-opacity="1"><g transform="translate(64.940333, 99.548437)"><g><path d="M 4.015625 -35.609375 L 4.015625 -47.046875 L 46.078125 -47.046875 L 46.078125 -35.609375 Z M 4.015625 -14.046875 L 4.015625 -25.484375 L 46.078125 -25.484375 L 46.078125 -14.046875 Z M 4.015625 -14.046875 "/></g></g></g><g fill="#222222" fill-opacity="1"><g transform="translate(115.041025, 99.548437)"><g><path d="M 4.015625 -8.90625 L 4.015625 -20.6875 L 32.125 -30.546875 L 4.015625 -40.40625 L 4.015625 -52.1875 L 46.078125 -36.578125 L 46.078125 -24.53125 Z M 4.015625 -8.90625 "/></g></g></g><g fill="#222222" fill-opacity="1"><g transform="translate(165.141716, 99.548437)"><g><path d="M 15.53125 19.109375 C 11.988281 19.109375 9.007812 18.4375 6.59375 17.09375 C 4.175781 15.757812 2.351562 13.925781 1.125 11.59375 C -0.09375 9.269531 -0.703125 6.628906 -0.703125 3.671875 C -0.703125 0.703125 -0.117188 -2.453125 1.046875 -5.796875 C 2.210938 -9.148438 4.144531 -12.453125 6.84375 -15.703125 C 9.550781 -18.960938 13.207031 -21.988281 17.8125 -24.78125 L 17.8125 -48.875 L 5.671875 -48.875 L 5.671875 -61.09375 L 31.6875 -61.09375 L 31.6875 0.703125 C 31.6875 4.367188 31.101562 7.582031 29.9375 10.34375 C 28.769531 13.101562 26.992188 15.253906 24.609375 16.796875 C 22.222656 18.335938 19.195312 19.109375 15.53125 19.109375 Z M 14.75 6.546875 C 15.445312 6.546875 16.054688 6.34375 16.578125 5.9375 C 17.109375 5.53125 17.503906 4.960938 17.765625 4.234375 C 18.023438 3.503906 18.15625 2.644531 18.15625 1.65625 L 18.15625 -11.703125 C 16.519531 -10.359375 15.191406 -8.972656 14.171875 -7.546875 C 13.160156 -6.117188 12.421875 -4.648438 11.953125 -3.140625 C 11.492188 -1.628906 11.265625 0.0234375 11.265625 1.828125 C 11.265625 3.347656 11.613281 4.515625 12.3125 5.328125 C 13.007812 6.140625 13.820312 6.546875 14.75 6.546875 Z M 14.75 6.546875 "/></g></g></g></g></g></svg>