<svg xmlns="http://www.w3.org/2000/svg" xmlns:xlink="http://www.w3.org/1999/xlink" viewBox="281 122 204 140" preserveAspectRatio="xMidYMid meet" version="1.0"><defs><g/><clipPath id="2f7561d101"><rect x="0" width="204" y="0" height="140"/></clipPath></defs><g transform="matrix(1, 0, 0, 1, 281, 122)"><g clip-path="url(#2f7561d101)"><g fill="#222222" fill-opacity="1"><g transform="translate(0.0470527, 99.8418)"><g><path d="M 18.5625 15.75 C 14.820312 11.257812 11.695312 5.703125 9.1875 -0.921875 C 6.675781 -7.546875 5.421875 -15.265625 5.421875 -24.078125 C 5.421875 -32.878906 6.675781 -40.609375 9.1875 -47.265625 C 11.695312 -53.921875 14.820312 -59.460938 18.5625 -63.890625 L 32.390625 -63.890625 C 28.535156 -59.347656 25.367188 -53.734375 22.890625 -47.046875 C 20.410156 -40.367188 19.171875 -32.796875 19.171875 -24.328125 C 19.171875 -15.867188 20.410156 -8.269531 22.890625 -1.53125 C 25.367188 5.207031 28.535156 10.96875 32.390625 15.75 Z M 18.5625 15.75 "/></g></g></g><g fill="#222222" fill-opacity="1"><g transform="translate(32.435529, 99.8418)"><g><path d="M 0 15.75 C 3.90625 10.96875 7.097656 5.207031 9.578125 -1.53125 C 12.066406 -8.269531 13.3125 -15.867188 13.3125 -24.328125 C 13.3125 -32.796875 12.066406 -40.367188 9.578125 -47.046875 C 7.097656 -53.734375 3.90625 -59.347656 0 -63.890625 L 13.828125 -63.890625 C 17.566406 -59.460938 20.6875 -53.921875 23.1875 -47.265625 C 25.695312 -40.609375 26.953125 -32.878906 26.953125 -24.078125 C 26.953125 -15.265625 25.695312 -7.546875 23.1875 -0.921875 C 20.6875 5.703125 17.566406 11.257812 13.828125 15.75 Z M 0 15.75 "/></g></g></g><g fill="#222222" fill-opacity="1"><g transform="translate(64.824006, 99.8418)"><g><path d="M 4.03125 -35.71875 L 4.03125 -47.171875 L 46.21875 -47.171875 L 46.21875 -35.71875 Z M 4.03125 -14.09375 L 4.03125 -25.5625 L 46.21875 -25.5625 L 46.21875 -14.09375 Z M 4.03125 -14.09375 "/></g></g></g><g fill="#222222" fill-opacity="1"><g transform="translate(115.069917, 99.8418)"><g><path d="M 4.03125 -8.921875 L 4.03125 -20.75 L 32.21875 -30.640625 L 4.03125 -40.53125 L 4.03125 -52.34375 L 46.21875 -36.671875 L 46.21875 -24.59375 Z M 4.03125 -8.921875 "/></g></g></g><g fill="#222222" fill-opacity="1"><g transform="translate(165.315828, 99.8418)"><g><path d="M 15.578125 19.171875 C 12.015625 19.171875 9.019531 18.5 6.59375 17.15625 C 4.175781 15.8125 2.351562 13.972656 1.125 11.640625 C -0.09375 9.304688 -0.703125 6.648438 -0.703125 3.671875 C -0.703125 0.703125 -0.117188 -2.457031 1.046875 -5.8125 C 2.210938 -9.175781 4.148438 -12.488281 6.859375 -15.75 C 9.578125 -19.019531 13.242188 -22.054688 17.859375 -24.859375 L 17.859375 -49.015625 L 5.6875 -49.015625 L 5.6875 -61.265625 L 31.78125 -61.265625 L 31.78125 0.703125 C 31.78125 4.378906 31.191406 7.601562 30.015625 10.375 C 28.847656 13.144531 27.066406 15.300781 24.671875 16.84375 C 22.285156 18.394531 19.253906 19.171875 15.578125 19.171875 Z M 14.796875 6.5625 C 15.492188 6.5625 16.101562 6.359375 16.625 5.953125 C 17.15625 5.546875 17.550781 4.976562 17.8125 4.25 C 18.070312 3.519531 18.203125 2.65625 18.203125 1.65625 L 18.203125 -11.734375 C 16.566406 -10.390625 15.238281 -9 14.21875 -7.5625 C 13.195312 -6.132812 12.453125 -4.660156 11.984375 -3.140625 C 11.523438 -1.628906 11.296875 0.03125 11.296875 1.84375 C 11.296875 3.351562 11.644531 4.515625 12.34375 5.328125 C 13.039062 6.148438 13.859375 6.5625 14.796875 6.5625 Z M 14.796875 6.5625 "/></g></g></g></g></g></svg>